<mxfile host="app.diagrams.net" agent="Mozilla/5.0 (Macintosh; Intel Mac OS X 10_15_7) AppleWebKit/537.36 (KHTML, like Gecko) Chrome/138.0.0.0 Safari/537.36" version="28.0.3">
  <diagram name="Page-1" id="lCVb-Hf2BrRugDM-XQiH">
    <mxGraphModel dx="1891" dy="622" grid="1" gridSize="10" guides="1" tooltips="1" connect="1" arrows="1" fold="1" page="1" pageScale="1" pageWidth="850" pageHeight="1100" math="0" shadow="0">
      <root>
        <mxCell id="0" />
        <mxCell id="1" parent="0" />
        <mxCell id="Lmfxl-HpZoTMKIEGASB5-1" value="ทบทวนสัญลักษณ์" style="swimlane;fontFamily=Sarabun;fontSource=https%3A%2F%2Ffonts.googleapis.com%2Fcss%3Ffamily%3DSarabun;" vertex="1" parent="1">
          <mxGeometry x="-720" y="20" width="640" height="290" as="geometry" />
        </mxCell>
        <mxCell id="Lmfxl-HpZoTMKIEGASB5-2" value="&lt;font data-font-src=&quot;https://fonts.googleapis.com/css?family=Sarabun&quot; face=&quot;Sarabun&quot;&gt;เริ่มต้น&lt;/font&gt;" style="ellipse;whiteSpace=wrap;html=1;" vertex="1" parent="Lmfxl-HpZoTMKIEGASB5-1">
          <mxGeometry x="20" y="40" width="130" height="30" as="geometry" />
        </mxCell>
        <mxCell id="Lmfxl-HpZoTMKIEGASB5-3" value="" style="endArrow=classic;html=1;rounded=0;" edge="1" parent="Lmfxl-HpZoTMKIEGASB5-1">
          <mxGeometry width="50" height="50" relative="1" as="geometry">
            <mxPoint x="84.5" y="70" as="sourcePoint" />
            <mxPoint x="84.5" y="120" as="targetPoint" />
          </mxGeometry>
        </mxCell>
        <mxCell id="Lmfxl-HpZoTMKIEGASB5-4" value="&lt;font face=&quot;Sarabun&quot;&gt;สิ้นสุด&lt;/font&gt;" style="ellipse;whiteSpace=wrap;html=1;" vertex="1" parent="Lmfxl-HpZoTMKIEGASB5-1">
          <mxGeometry x="150" y="90" width="130" height="30" as="geometry" />
        </mxCell>
        <mxCell id="Lmfxl-HpZoTMKIEGASB5-5" value="" style="endArrow=classic;html=1;rounded=0;" edge="1" parent="Lmfxl-HpZoTMKIEGASB5-1">
          <mxGeometry width="50" height="50" relative="1" as="geometry">
            <mxPoint x="214.5" y="40" as="sourcePoint" />
            <mxPoint x="214.5" y="90" as="targetPoint" />
          </mxGeometry>
        </mxCell>
        <mxCell id="Lmfxl-HpZoTMKIEGASB5-6" value="กระบวนการ" style="rounded=0;whiteSpace=wrap;html=1;fontFamily=Sarabun;fontSource=https%3A%2F%2Ffonts.googleapis.com%2Fcss%3Ffamily%3DSarabun;" vertex="1" parent="Lmfxl-HpZoTMKIEGASB5-1">
          <mxGeometry x="320" y="70" width="120" height="30" as="geometry" />
        </mxCell>
        <mxCell id="Lmfxl-HpZoTMKIEGASB5-7" value="" style="endArrow=classic;html=1;rounded=0;" edge="1" parent="Lmfxl-HpZoTMKIEGASB5-1">
          <mxGeometry width="50" height="50" relative="1" as="geometry">
            <mxPoint x="379" y="40" as="sourcePoint" />
            <mxPoint x="379.5" y="70" as="targetPoint" />
          </mxGeometry>
        </mxCell>
        <mxCell id="Lmfxl-HpZoTMKIEGASB5-8" value="" style="endArrow=classic;html=1;rounded=0;" edge="1" parent="Lmfxl-HpZoTMKIEGASB5-1">
          <mxGeometry width="50" height="50" relative="1" as="geometry">
            <mxPoint x="379.75" y="100" as="sourcePoint" />
            <mxPoint x="380.25" y="130" as="targetPoint" />
          </mxGeometry>
        </mxCell>
        <mxCell id="Lmfxl-HpZoTMKIEGASB5-9" value="ประโยคเงื่อนไข" style="rhombus;whiteSpace=wrap;html=1;fontFamily=Sarabun;fontSource=https%3A%2F%2Ffonts.googleapis.com%2Fcss%3Ffamily%3DSarabun;" vertex="1" parent="Lmfxl-HpZoTMKIEGASB5-1">
          <mxGeometry x="490" y="60" width="100" height="60" as="geometry" />
        </mxCell>
        <mxCell id="Lmfxl-HpZoTMKIEGASB5-10" value="" style="endArrow=classic;html=1;rounded=0;" edge="1" parent="Lmfxl-HpZoTMKIEGASB5-1">
          <mxGeometry width="50" height="50" relative="1" as="geometry">
            <mxPoint x="539.71" y="30" as="sourcePoint" />
            <mxPoint x="540.21" y="60" as="targetPoint" />
          </mxGeometry>
        </mxCell>
        <mxCell id="Lmfxl-HpZoTMKIEGASB5-11" value="" style="endArrow=classic;html=1;rounded=0;" edge="1" parent="Lmfxl-HpZoTMKIEGASB5-1">
          <mxGeometry width="50" height="50" relative="1" as="geometry">
            <mxPoint x="539.71" y="120" as="sourcePoint" />
            <mxPoint x="540" y="175" as="targetPoint" />
          </mxGeometry>
        </mxCell>
        <mxCell id="Lmfxl-HpZoTMKIEGASB5-12" value="จริง" style="edgeLabel;html=1;align=center;verticalAlign=middle;resizable=0;points=[];fontFamily=Sarabun;fontSource=https%3A%2F%2Ffonts.googleapis.com%2Fcss%3Ffamily%3DSarabun;" vertex="1" connectable="0" parent="Lmfxl-HpZoTMKIEGASB5-11">
          <mxGeometry x="-0.4142" y="-1" relative="1" as="geometry">
            <mxPoint as="offset" />
          </mxGeometry>
        </mxCell>
        <mxCell id="Lmfxl-HpZoTMKIEGASB5-13" value="" style="endArrow=classic;html=1;rounded=0;exitX=1;exitY=0.5;exitDx=0;exitDy=0;" edge="1" parent="Lmfxl-HpZoTMKIEGASB5-1" source="Lmfxl-HpZoTMKIEGASB5-9">
          <mxGeometry width="50" height="50" relative="1" as="geometry">
            <mxPoint x="620" y="95" as="sourcePoint" />
            <mxPoint x="610" y="175" as="targetPoint" />
            <Array as="points">
              <mxPoint x="610" y="90" />
            </Array>
          </mxGeometry>
        </mxCell>
        <mxCell id="Lmfxl-HpZoTMKIEGASB5-14" value="&lt;font data-font-src=&quot;https://fonts.googleapis.com/css?family=Sarabun&quot; face=&quot;Sarabun&quot;&gt;เท็จ&lt;/font&gt;" style="edgeLabel;html=1;align=center;verticalAlign=middle;resizable=0;points=[];" vertex="1" connectable="0" parent="Lmfxl-HpZoTMKIEGASB5-13">
          <mxGeometry x="-0.0019" y="-2" relative="1" as="geometry">
            <mxPoint as="offset" />
          </mxGeometry>
        </mxCell>
        <mxCell id="Lmfxl-HpZoTMKIEGASB5-15" value="&lt;font data-font-src=&quot;https://fonts.googleapis.com/css?family=Sarabun&quot; face=&quot;Sarabun&quot;&gt;ฟังก์ชัน/โมดูล&lt;/font&gt;" style="shape=process;whiteSpace=wrap;html=1;backgroundOutline=1;" vertex="1" parent="Lmfxl-HpZoTMKIEGASB5-1">
          <mxGeometry x="25" y="180" width="120" height="30" as="geometry" />
        </mxCell>
        <mxCell id="Lmfxl-HpZoTMKIEGASB5-16" value="" style="endArrow=classic;html=1;rounded=0;" edge="1" parent="Lmfxl-HpZoTMKIEGASB5-1">
          <mxGeometry width="50" height="50" relative="1" as="geometry">
            <mxPoint x="84.70999999999998" y="150" as="sourcePoint" />
            <mxPoint x="85.20999999999998" y="180" as="targetPoint" />
          </mxGeometry>
        </mxCell>
        <mxCell id="Lmfxl-HpZoTMKIEGASB5-17" value="" style="endArrow=classic;html=1;rounded=0;" edge="1" parent="Lmfxl-HpZoTMKIEGASB5-1">
          <mxGeometry width="50" height="50" relative="1" as="geometry">
            <mxPoint x="84.70999999999998" y="210" as="sourcePoint" />
            <mxPoint x="85.20999999999998" y="240" as="targetPoint" />
          </mxGeometry>
        </mxCell>
        <mxCell id="Lmfxl-HpZoTMKIEGASB5-18" value="" style="strokeWidth=2;html=1;shape=mxgraph.flowchart.start_2;whiteSpace=wrap;" vertex="1" parent="Lmfxl-HpZoTMKIEGASB5-1">
          <mxGeometry x="205" y="185" width="20" height="20" as="geometry" />
        </mxCell>
        <mxCell id="Lmfxl-HpZoTMKIEGASB5-19" value="" style="endArrow=classic;html=1;rounded=0;" edge="1" parent="Lmfxl-HpZoTMKIEGASB5-1">
          <mxGeometry width="50" height="50" relative="1" as="geometry">
            <mxPoint x="214.70999999999998" y="155" as="sourcePoint" />
            <mxPoint x="215.20999999999998" y="185" as="targetPoint" />
          </mxGeometry>
        </mxCell>
        <mxCell id="Lmfxl-HpZoTMKIEGASB5-20" value="" style="endArrow=classic;html=1;rounded=0;entryX=0;entryY=0.5;entryDx=0;entryDy=0;entryPerimeter=0;" edge="1" parent="Lmfxl-HpZoTMKIEGASB5-1" target="Lmfxl-HpZoTMKIEGASB5-18">
          <mxGeometry width="50" height="50" relative="1" as="geometry">
            <mxPoint x="189.99999999999997" y="155" as="sourcePoint" />
            <mxPoint x="190.49999999999997" y="185" as="targetPoint" />
            <Array as="points">
              <mxPoint x="190" y="180" />
            </Array>
          </mxGeometry>
        </mxCell>
        <mxCell id="Lmfxl-HpZoTMKIEGASB5-21" value="" style="endArrow=classic;html=1;rounded=0;entryX=1;entryY=0.5;entryDx=0;entryDy=0;entryPerimeter=0;" edge="1" parent="Lmfxl-HpZoTMKIEGASB5-1" target="Lmfxl-HpZoTMKIEGASB5-18">
          <mxGeometry width="50" height="50" relative="1" as="geometry">
            <mxPoint x="239.99999999999997" y="155" as="sourcePoint" />
            <mxPoint x="240.49999999999997" y="185" as="targetPoint" />
            <Array as="points">
              <mxPoint x="240" y="180" />
            </Array>
          </mxGeometry>
        </mxCell>
        <mxCell id="Lmfxl-HpZoTMKIEGASB5-22" value="" style="endArrow=classic;html=1;rounded=0;" edge="1" parent="Lmfxl-HpZoTMKIEGASB5-1">
          <mxGeometry width="50" height="50" relative="1" as="geometry">
            <mxPoint x="214.70999999999998" y="205" as="sourcePoint" />
            <mxPoint x="215.20999999999998" y="235" as="targetPoint" />
          </mxGeometry>
        </mxCell>
        <mxCell id="Lmfxl-HpZoTMKIEGASB5-23" value="&lt;font data-font-src=&quot;https://fonts.googleapis.com/css?family=Sarabun&quot; face=&quot;Sarabun&quot;&gt;ตัวเชื่อม&lt;/font&gt;" style="text;html=1;align=center;verticalAlign=middle;resizable=0;points=[];autosize=1;strokeColor=none;fillColor=none;" vertex="1" parent="Lmfxl-HpZoTMKIEGASB5-1">
          <mxGeometry x="220" y="190" width="60" height="30" as="geometry" />
        </mxCell>
        <mxCell id="Lmfxl-HpZoTMKIEGASB5-24" value="" style="endArrow=classic;html=1;rounded=0;" edge="1" parent="Lmfxl-HpZoTMKIEGASB5-1">
          <mxGeometry width="50" height="50" relative="1" as="geometry">
            <mxPoint x="353.71" y="165" as="sourcePoint" />
            <mxPoint x="354.21" y="195" as="targetPoint" />
          </mxGeometry>
        </mxCell>
        <mxCell id="Lmfxl-HpZoTMKIEGASB5-25" value="" style="verticalLabelPosition=bottom;verticalAlign=top;html=1;shape=offPageConnector;rounded=0;size=0.5;" vertex="1" parent="Lmfxl-HpZoTMKIEGASB5-1">
          <mxGeometry x="339" y="195" width="30" height="30" as="geometry" />
        </mxCell>
        <mxCell id="Lmfxl-HpZoTMKIEGASB5-26" value="" style="endArrow=classic;html=1;rounded=0;" edge="1" parent="Lmfxl-HpZoTMKIEGASB5-1">
          <mxGeometry width="50" height="50" relative="1" as="geometry">
            <mxPoint x="405.71" y="195" as="sourcePoint" />
            <mxPoint x="406.21" y="225" as="targetPoint" />
          </mxGeometry>
        </mxCell>
        <mxCell id="Lmfxl-HpZoTMKIEGASB5-27" value="" style="verticalLabelPosition=bottom;verticalAlign=top;html=1;shape=offPageConnector;rounded=0;size=0.5;" vertex="1" parent="Lmfxl-HpZoTMKIEGASB5-1">
          <mxGeometry x="391" y="165" width="30" height="30" as="geometry" />
        </mxCell>
        <mxCell id="Lmfxl-HpZoTMKIEGASB5-28" value="หน้าต่อไป" style="text;html=1;align=center;verticalAlign=middle;resizable=0;points=[];autosize=1;strokeColor=none;fillColor=none;fontFamily=Sarabun;fontSource=https%3A%2F%2Ffonts.googleapis.com%2Fcss%3Ffamily%3DSarabun;" vertex="1" parent="Lmfxl-HpZoTMKIEGASB5-1">
          <mxGeometry x="345" y="220" width="70" height="30" as="geometry" />
        </mxCell>
        <mxCell id="Lmfxl-HpZoTMKIEGASB5-29" value="ก" style="text;html=1;align=center;verticalAlign=middle;resizable=0;points=[];autosize=1;strokeColor=none;fillColor=none;fontFamily=Sarabun;fontSource=https%3A%2F%2Ffonts.googleapis.com%2Fcss%3Ffamily%3DSarabun;" vertex="1" parent="Lmfxl-HpZoTMKIEGASB5-1">
          <mxGeometry x="339" y="190" width="30" height="30" as="geometry" />
        </mxCell>
        <mxCell id="Lmfxl-HpZoTMKIEGASB5-30" value="ก" style="text;html=1;align=center;verticalAlign=middle;resizable=0;points=[];autosize=1;strokeColor=none;fillColor=none;fontFamily=Sarabun;fontSource=https%3A%2F%2Ffonts.googleapis.com%2Fcss%3Ffamily%3DSarabun;" vertex="1" parent="Lmfxl-HpZoTMKIEGASB5-1">
          <mxGeometry x="391" y="160" width="30" height="30" as="geometry" />
        </mxCell>
        <mxCell id="Lmfxl-HpZoTMKIEGASB5-31" value="แสดงผล/รับค่า" style="shape=parallelogram;perimeter=parallelogramPerimeter;whiteSpace=wrap;html=1;fixedSize=1;fontFamily=Sarabun;fontSource=https%3A%2F%2Ffonts.googleapis.com%2Fcss%3Ffamily%3DSarabun;" vertex="1" parent="Lmfxl-HpZoTMKIEGASB5-1">
          <mxGeometry x="450" y="210" width="120" height="30" as="geometry" />
        </mxCell>
        <mxCell id="Lmfxl-HpZoTMKIEGASB5-32" value="" style="endArrow=classic;html=1;rounded=0;" edge="1" parent="Lmfxl-HpZoTMKIEGASB5-1">
          <mxGeometry width="50" height="50" relative="1" as="geometry">
            <mxPoint x="509.71" y="180" as="sourcePoint" />
            <mxPoint x="510.21" y="210" as="targetPoint" />
          </mxGeometry>
        </mxCell>
        <mxCell id="Lmfxl-HpZoTMKIEGASB5-33" value="" style="endArrow=classic;html=1;rounded=0;" edge="1" parent="Lmfxl-HpZoTMKIEGASB5-1">
          <mxGeometry width="50" height="50" relative="1" as="geometry">
            <mxPoint x="509.71" y="240" as="sourcePoint" />
            <mxPoint x="510.21" y="270" as="targetPoint" />
          </mxGeometry>
        </mxCell>
        <mxCell id="Lmfxl-HpZoTMKIEGASB5-34" value="ฅ&#xa;&#xa;" style="swimlane;fontFamily=Sarabun;fontSource=https%3A%2F%2Ffonts.googleapis.com%2Fcss%3Ffamily%3DSarabun;" vertex="1" parent="1">
          <mxGeometry x="-720" y="630" width="640" height="1140" as="geometry" />
        </mxCell>
        <mxCell id="Lmfxl-HpZoTMKIEGASB5-35" value="&lt;font data-font-src=&quot;https://fonts.googleapis.com/css?family=Sarabun&quot; face=&quot;Sarabun&quot;&gt;เริ่มต้น&lt;/font&gt;" style="ellipse;whiteSpace=wrap;html=1;" vertex="1" parent="Lmfxl-HpZoTMKIEGASB5-34">
          <mxGeometry x="255" y="40" width="130" height="30" as="geometry" />
        </mxCell>
        <mxCell id="Lmfxl-HpZoTMKIEGASB5-36" value="&lt;font face=&quot;Sarabun&quot;&gt;สิ้นสุด&lt;/font&gt;" style="ellipse;whiteSpace=wrap;html=1;" vertex="1" parent="Lmfxl-HpZoTMKIEGASB5-34">
          <mxGeometry x="254" y="1085" width="130" height="30" as="geometry" />
        </mxCell>
        <mxCell id="Lmfxl-HpZoTMKIEGASB5-40" value="แสดงสินค้า/ราคา" style="shape=parallelogram;perimeter=parallelogramPerimeter;whiteSpace=wrap;html=1;fixedSize=1;" vertex="1" parent="Lmfxl-HpZoTMKIEGASB5-34">
          <mxGeometry x="260" y="98" width="120" height="60" as="geometry" />
        </mxCell>
        <mxCell id="Lmfxl-HpZoTMKIEGASB5-41" style="edgeStyle=orthogonalEdgeStyle;rounded=0;orthogonalLoop=1;jettySize=auto;html=1;exitX=0.5;exitY=1;exitDx=0;exitDy=0;" edge="1" parent="Lmfxl-HpZoTMKIEGASB5-34" source="Lmfxl-HpZoTMKIEGASB5-40" target="Lmfxl-HpZoTMKIEGASB5-40">
          <mxGeometry relative="1" as="geometry" />
        </mxCell>
        <mxCell id="Lmfxl-HpZoTMKIEGASB5-42" value="สินค้าที่เลือก" style="shape=parallelogram;perimeter=parallelogramPerimeter;whiteSpace=wrap;html=1;fixedSize=1;" vertex="1" parent="Lmfxl-HpZoTMKIEGASB5-34">
          <mxGeometry x="260" y="182" width="120" height="60" as="geometry" />
        </mxCell>
        <mxCell id="Lmfxl-HpZoTMKIEGASB5-43" value="บันทึกสินค้าและคำนวนยอดรวม" style="rounded=0;whiteSpace=wrap;html=1;" vertex="1" parent="Lmfxl-HpZoTMKIEGASB5-34">
          <mxGeometry x="230" y="277" width="180" height="40" as="geometry" />
        </mxCell>
        <mxCell id="Lmfxl-HpZoTMKIEGASB5-44" value="ต้องการสินค้า&lt;div&gt;เพิ่มหรือไม่&lt;/div&gt;" style="rhombus;whiteSpace=wrap;html=1;" vertex="1" parent="Lmfxl-HpZoTMKIEGASB5-34">
          <mxGeometry x="262.5" y="349" width="115" height="91" as="geometry" />
        </mxCell>
        <mxCell id="Lmfxl-HpZoTMKIEGASB5-45" value="" style="endArrow=classic;html=1;rounded=0;exitX=0;exitY=0.5;exitDx=0;exitDy=0;entryX=0;entryY=0.5;entryDx=0;entryDy=0;" edge="1" parent="Lmfxl-HpZoTMKIEGASB5-34" source="Lmfxl-HpZoTMKIEGASB5-44" target="Lmfxl-HpZoTMKIEGASB5-42">
          <mxGeometry width="50" height="50" relative="1" as="geometry">
            <mxPoint x="240" y="400" as="sourcePoint" />
            <mxPoint x="200" y="220" as="targetPoint" />
            <Array as="points">
              <mxPoint x="170" y="395" />
              <mxPoint x="170" y="300" />
              <mxPoint x="170" y="212" />
            </Array>
          </mxGeometry>
        </mxCell>
        <mxCell id="Lmfxl-HpZoTMKIEGASB5-46" value="ยอดเงินรวม/สินค้า&lt;div&gt;ที่เลือก&lt;/div&gt;" style="shape=parallelogram;perimeter=parallelogramPerimeter;whiteSpace=wrap;html=1;fixedSize=1;" vertex="1" parent="Lmfxl-HpZoTMKIEGASB5-34">
          <mxGeometry x="260" y="478" width="120" height="60" as="geometry" />
        </mxCell>
        <mxCell id="Lmfxl-HpZoTMKIEGASB5-47" value="เงินที่หยอด" style="shape=parallelogram;perimeter=parallelogramPerimeter;whiteSpace=wrap;html=1;fixedSize=1;" vertex="1" parent="Lmfxl-HpZoTMKIEGASB5-34">
          <mxGeometry x="260" y="580" width="120" height="60" as="geometry" />
        </mxCell>
        <mxCell id="Lmfxl-HpZoTMKIEGASB5-52" value="" style="edgeStyle=orthogonalEdgeStyle;rounded=0;orthogonalLoop=1;jettySize=auto;html=1;entryX=1;entryY=0.5;entryDx=0;entryDy=0;" edge="1" parent="Lmfxl-HpZoTMKIEGASB5-34" source="Lmfxl-HpZoTMKIEGASB5-48" target="Lmfxl-HpZoTMKIEGASB5-46">
          <mxGeometry relative="1" as="geometry">
            <mxPoint x="200" y="500" as="targetPoint" />
            <Array as="points">
              <mxPoint x="450" y="714" />
              <mxPoint x="450" y="508" />
            </Array>
          </mxGeometry>
        </mxCell>
        <mxCell id="Lmfxl-HpZoTMKIEGASB5-54" value="" style="edgeStyle=orthogonalEdgeStyle;rounded=0;orthogonalLoop=1;jettySize=auto;html=1;" edge="1" parent="Lmfxl-HpZoTMKIEGASB5-34" source="Lmfxl-HpZoTMKIEGASB5-48" target="Lmfxl-HpZoTMKIEGASB5-53">
          <mxGeometry relative="1" as="geometry" />
        </mxCell>
        <mxCell id="Lmfxl-HpZoTMKIEGASB5-48" value="เงินที่หยอด&lt;div&gt;พอหรือไม่&lt;/div&gt;" style="rhombus;whiteSpace=wrap;html=1;" vertex="1" parent="Lmfxl-HpZoTMKIEGASB5-34">
          <mxGeometry x="269" y="674" width="100" height="80" as="geometry" />
        </mxCell>
        <mxCell id="Lmfxl-HpZoTMKIEGASB5-56" value="" style="edgeStyle=orthogonalEdgeStyle;rounded=0;orthogonalLoop=1;jettySize=auto;html=1;" edge="1" parent="Lmfxl-HpZoTMKIEGASB5-34" source="Lmfxl-HpZoTMKIEGASB5-53" target="Lmfxl-HpZoTMKIEGASB5-55">
          <mxGeometry relative="1" as="geometry" />
        </mxCell>
        <mxCell id="Lmfxl-HpZoTMKIEGASB5-53" value="คำนวนเงินทอน" style="whiteSpace=wrap;html=1;" vertex="1" parent="Lmfxl-HpZoTMKIEGASB5-34">
          <mxGeometry x="260" y="785" width="120" height="45" as="geometry" />
        </mxCell>
        <mxCell id="Lmfxl-HpZoTMKIEGASB5-58" value="" style="edgeStyle=orthogonalEdgeStyle;rounded=0;orthogonalLoop=1;jettySize=auto;html=1;" edge="1" parent="Lmfxl-HpZoTMKIEGASB5-34" source="Lmfxl-HpZoTMKIEGASB5-55" target="Lmfxl-HpZoTMKIEGASB5-57">
          <mxGeometry relative="1" as="geometry" />
        </mxCell>
        <mxCell id="Lmfxl-HpZoTMKIEGASB5-60" value="" style="edgeStyle=orthogonalEdgeStyle;rounded=0;orthogonalLoop=1;jettySize=auto;html=1;" edge="1" parent="Lmfxl-HpZoTMKIEGASB5-34" source="Lmfxl-HpZoTMKIEGASB5-55" target="Lmfxl-HpZoTMKIEGASB5-59">
          <mxGeometry relative="1" as="geometry" />
        </mxCell>
        <mxCell id="Lmfxl-HpZoTMKIEGASB5-55" value="มีเงินทอน&lt;div&gt;หรือไม่&lt;/div&gt;" style="rhombus;whiteSpace=wrap;html=1;" vertex="1" parent="Lmfxl-HpZoTMKIEGASB5-34">
          <mxGeometry x="276" y="863.5" width="90" height="80" as="geometry" />
        </mxCell>
        <mxCell id="Lmfxl-HpZoTMKIEGASB5-57" value="ทอนเงิน" style="whiteSpace=wrap;html=1;" vertex="1" parent="Lmfxl-HpZoTMKIEGASB5-34">
          <mxGeometry x="91" y="960" width="120" height="40" as="geometry" />
        </mxCell>
        <mxCell id="Lmfxl-HpZoTMKIEGASB5-59" value="จ่ายสินค้า" style="whiteSpace=wrap;html=1;" vertex="1" parent="Lmfxl-HpZoTMKIEGASB5-34">
          <mxGeometry x="430" y="960" width="120" height="40" as="geometry" />
        </mxCell>
        <mxCell id="Lmfxl-HpZoTMKIEGASB5-61" value="" style="ellipse;whiteSpace=wrap;html=1;aspect=fixed;" vertex="1" parent="Lmfxl-HpZoTMKIEGASB5-34">
          <mxGeometry x="304" y="1018" width="30" height="30" as="geometry" />
        </mxCell>
        <mxCell id="Lmfxl-HpZoTMKIEGASB5-62" value="" style="endArrow=classic;html=1;rounded=0;exitX=0.5;exitY=1;exitDx=0;exitDy=0;entryX=1;entryY=0.5;entryDx=0;entryDy=0;" edge="1" parent="Lmfxl-HpZoTMKIEGASB5-34" source="Lmfxl-HpZoTMKIEGASB5-59" target="Lmfxl-HpZoTMKIEGASB5-61">
          <mxGeometry width="50" height="50" relative="1" as="geometry">
            <mxPoint x="440" y="940" as="sourcePoint" />
            <mxPoint x="490" y="890" as="targetPoint" />
            <Array as="points">
              <mxPoint x="490" y="1033" />
            </Array>
          </mxGeometry>
        </mxCell>
        <mxCell id="Lmfxl-HpZoTMKIEGASB5-63" value="" style="endArrow=classic;html=1;rounded=0;exitX=0.5;exitY=1;exitDx=0;exitDy=0;entryX=0;entryY=0.5;entryDx=0;entryDy=0;" edge="1" parent="Lmfxl-HpZoTMKIEGASB5-34" source="Lmfxl-HpZoTMKIEGASB5-57" target="Lmfxl-HpZoTMKIEGASB5-61">
          <mxGeometry width="50" height="50" relative="1" as="geometry">
            <mxPoint x="440" y="940" as="sourcePoint" />
            <mxPoint x="490" y="890" as="targetPoint" />
            <Array as="points">
              <mxPoint x="150" y="1033" />
            </Array>
          </mxGeometry>
        </mxCell>
        <mxCell id="Lmfxl-HpZoTMKIEGASB5-64" value="" style="endArrow=classic;html=1;rounded=0;exitX=0.5;exitY=1;exitDx=0;exitDy=0;entryX=0.5;entryY=0;entryDx=0;entryDy=0;" edge="1" parent="Lmfxl-HpZoTMKIEGASB5-34" source="Lmfxl-HpZoTMKIEGASB5-61" target="Lmfxl-HpZoTMKIEGASB5-36">
          <mxGeometry width="50" height="50" relative="1" as="geometry">
            <mxPoint x="440" y="940" as="sourcePoint" />
            <mxPoint x="490" y="890" as="targetPoint" />
          </mxGeometry>
        </mxCell>
        <mxCell id="Lmfxl-HpZoTMKIEGASB5-65" value="" style="endArrow=classic;html=1;rounded=0;exitX=0.5;exitY=1;exitDx=0;exitDy=0;entryX=0.5;entryY=0;entryDx=0;entryDy=0;" edge="1" parent="Lmfxl-HpZoTMKIEGASB5-34" source="Lmfxl-HpZoTMKIEGASB5-46" target="Lmfxl-HpZoTMKIEGASB5-47">
          <mxGeometry width="50" height="50" relative="1" as="geometry">
            <mxPoint x="440" y="660" as="sourcePoint" />
            <mxPoint x="490" y="610" as="targetPoint" />
          </mxGeometry>
        </mxCell>
        <mxCell id="Lmfxl-HpZoTMKIEGASB5-66" value="" style="endArrow=classic;html=1;rounded=0;exitX=0.5;exitY=1;exitDx=0;exitDy=0;entryX=0.5;entryY=0;entryDx=0;entryDy=0;" edge="1" parent="Lmfxl-HpZoTMKIEGASB5-34" source="Lmfxl-HpZoTMKIEGASB5-44" target="Lmfxl-HpZoTMKIEGASB5-46">
          <mxGeometry width="50" height="50" relative="1" as="geometry">
            <mxPoint x="440" y="470" as="sourcePoint" />
            <mxPoint x="490" y="420" as="targetPoint" />
          </mxGeometry>
        </mxCell>
        <mxCell id="Lmfxl-HpZoTMKIEGASB5-67" value="" style="endArrow=classic;html=1;rounded=0;exitX=0.5;exitY=1;exitDx=0;exitDy=0;entryX=0.5;entryY=0;entryDx=0;entryDy=0;" edge="1" parent="Lmfxl-HpZoTMKIEGASB5-34" source="Lmfxl-HpZoTMKIEGASB5-35" target="Lmfxl-HpZoTMKIEGASB5-40">
          <mxGeometry width="50" height="50" relative="1" as="geometry">
            <mxPoint x="440" y="200" as="sourcePoint" />
            <mxPoint x="490" y="150" as="targetPoint" />
          </mxGeometry>
        </mxCell>
        <mxCell id="Lmfxl-HpZoTMKIEGASB5-68" value="" style="endArrow=classic;html=1;rounded=0;exitX=0.5;exitY=1;exitDx=0;exitDy=0;entryX=0.5;entryY=0;entryDx=0;entryDy=0;" edge="1" parent="Lmfxl-HpZoTMKIEGASB5-34" source="Lmfxl-HpZoTMKIEGASB5-40" target="Lmfxl-HpZoTMKIEGASB5-42">
          <mxGeometry width="50" height="50" relative="1" as="geometry">
            <mxPoint x="440" y="200" as="sourcePoint" />
            <mxPoint x="490" y="150" as="targetPoint" />
          </mxGeometry>
        </mxCell>
        <mxCell id="Lmfxl-HpZoTMKIEGASB5-69" value="" style="endArrow=classic;html=1;rounded=0;exitX=0.5;exitY=1;exitDx=0;exitDy=0;entryX=0.5;entryY=0;entryDx=0;entryDy=0;" edge="1" parent="Lmfxl-HpZoTMKIEGASB5-34" source="Lmfxl-HpZoTMKIEGASB5-42" target="Lmfxl-HpZoTMKIEGASB5-43">
          <mxGeometry width="50" height="50" relative="1" as="geometry">
            <mxPoint x="440" y="330" as="sourcePoint" />
            <mxPoint x="490" y="280" as="targetPoint" />
          </mxGeometry>
        </mxCell>
        <mxCell id="Lmfxl-HpZoTMKIEGASB5-70" value="" style="endArrow=classic;html=1;rounded=0;exitX=0.5;exitY=1;exitDx=0;exitDy=0;entryX=0.5;entryY=0;entryDx=0;entryDy=0;" edge="1" parent="Lmfxl-HpZoTMKIEGASB5-34" source="Lmfxl-HpZoTMKIEGASB5-43" target="Lmfxl-HpZoTMKIEGASB5-44">
          <mxGeometry width="50" height="50" relative="1" as="geometry">
            <mxPoint x="440" y="370" as="sourcePoint" />
            <mxPoint x="490" y="320" as="targetPoint" />
          </mxGeometry>
        </mxCell>
        <mxCell id="Lmfxl-HpZoTMKIEGASB5-71" value="ใช่" style="text;html=1;align=center;verticalAlign=middle;whiteSpace=wrap;rounded=0;" vertex="1" parent="Lmfxl-HpZoTMKIEGASB5-34">
          <mxGeometry x="124" y="287" width="60" height="30" as="geometry" />
        </mxCell>
        <mxCell id="Lmfxl-HpZoTMKIEGASB5-72" value="ไม่" style="text;html=1;align=center;verticalAlign=middle;whiteSpace=wrap;rounded=0;" vertex="1" parent="Lmfxl-HpZoTMKIEGASB5-34">
          <mxGeometry x="274" y="440" width="60" height="30" as="geometry" />
        </mxCell>
        <mxCell id="Lmfxl-HpZoTMKIEGASB5-73" value="" style="endArrow=classic;html=1;rounded=0;exitX=0.5;exitY=1;exitDx=0;exitDy=0;entryX=0.5;entryY=0;entryDx=0;entryDy=0;" edge="1" parent="Lmfxl-HpZoTMKIEGASB5-34" source="Lmfxl-HpZoTMKIEGASB5-47" target="Lmfxl-HpZoTMKIEGASB5-48">
          <mxGeometry width="50" height="50" relative="1" as="geometry">
            <mxPoint x="440" y="710" as="sourcePoint" />
            <mxPoint x="490" y="660" as="targetPoint" />
          </mxGeometry>
        </mxCell>
        <mxCell id="Lmfxl-HpZoTMKIEGASB5-74" value="ไม่พอ" style="text;html=1;align=center;verticalAlign=middle;whiteSpace=wrap;rounded=0;" vertex="1" parent="Lmfxl-HpZoTMKIEGASB5-34">
          <mxGeometry x="446" y="595" width="60" height="30" as="geometry" />
        </mxCell>
        <mxCell id="Lmfxl-HpZoTMKIEGASB5-75" value="พอ" style="text;html=1;align=center;verticalAlign=middle;whiteSpace=wrap;rounded=0;" vertex="1" parent="Lmfxl-HpZoTMKIEGASB5-34">
          <mxGeometry x="309" y="750" width="60" height="30" as="geometry" />
        </mxCell>
        <mxCell id="Lmfxl-HpZoTMKIEGASB5-76" value="มี" style="text;html=1;align=center;verticalAlign=middle;whiteSpace=wrap;rounded=0;" vertex="1" parent="Lmfxl-HpZoTMKIEGASB5-34">
          <mxGeometry x="185" y="873" width="60" height="30" as="geometry" />
        </mxCell>
        <mxCell id="Lmfxl-HpZoTMKIEGASB5-77" value="ไม่มี" style="text;html=1;align=center;verticalAlign=middle;whiteSpace=wrap;rounded=0;" vertex="1" parent="Lmfxl-HpZoTMKIEGASB5-34">
          <mxGeometry x="410" y="873" width="60" height="30" as="geometry" />
        </mxCell>
        <mxCell id="Lmfxl-HpZoTMKIEGASB5-37" value="&lt;font data-font-src=&quot;https://fonts.googleapis.com/css?family=Sarabun&quot; face=&quot;Sarabun&quot;&gt;โจทย์ปัญหา&lt;/font&gt;" style="swimlane;whiteSpace=wrap;html=1;" vertex="1" parent="1">
          <mxGeometry x="-720" y="320" width="640" height="240" as="geometry" />
        </mxCell>
        <mxCell id="Lmfxl-HpZoTMKIEGASB5-38" value="&lt;font data-font-src=&quot;https://fonts.googleapis.com/css?family=Sarabun&quot; face=&quot;Sarabun&quot; style=&quot;font-size: 14px;&quot;&gt;จงเขียน Flowchart เพื่อแสดงขั้นตอนการทำงาน ของเครื่องขายน้ำอัตโนมัติที่ชื่อว่า &quot;ตะพาบลอย&quot;&lt;br&gt;โดยจะต้องมีสินค้าดังนี้&lt;br&gt;&lt;u&gt;ประเภทน้ำ&lt;span style=&quot;white-space: pre;&quot;&gt;&#x9;&lt;/span&gt;&lt;span style=&quot;white-space: pre;&quot;&gt;&#x9;&lt;/span&gt;&lt;span style=&quot;white-space: pre;&quot;&gt;&#x9;&lt;/span&gt;&lt;span style=&quot;white-space: pre;&quot;&gt;&#x9;&lt;/span&gt;&lt;span style=&quot;white-space: pre;&quot;&gt;&#x9;&lt;/span&gt;&lt;span style=&quot;white-space: pre;&quot;&gt;&#x9;&lt;span style=&quot;white-space: pre;&quot;&gt;&#x9;&lt;/span&gt;ข&lt;/span&gt;นม&lt;/u&gt;&lt;br&gt;&lt;span style=&quot;white-space: pre;&quot;&gt;&#x9;&lt;/span&gt;- โค้ก กระป๋องละ 10 บาท&lt;span style=&quot;white-space: pre;&quot;&gt;&#x9;&lt;/span&gt;&lt;span style=&quot;white-space: pre;&quot;&gt;&#x9;&lt;/span&gt;&lt;span style=&quot;white-space: pre;&quot;&gt;&#x9;&lt;/span&gt;&lt;span style=&quot;white-space: pre;&quot;&gt;&#x9;&lt;/span&gt;- เมล็ดทานตะวัน 13 บาท&lt;br&gt;&lt;span style=&quot;white-space: pre;&quot;&gt;&#x9;&lt;/span&gt;- น้ำเขียว กระป๋องละ 12 บาท&lt;span style=&quot;white-space: pre;&quot;&gt;&#x9;&lt;/span&gt;&lt;span style=&quot;white-space: pre;&quot;&gt;&#x9;&lt;/span&gt;&lt;span style=&quot;white-space: pre;&quot;&gt;&#x9;&lt;/span&gt;- ถั่วแปบ 20 บาท&lt;br&gt;&lt;span style=&quot;white-space: pre;&quot;&gt;&#x9;&lt;/span&gt;- อเมริกาโน่ 30 บาท&lt;span style=&quot;white-space: pre;&quot;&gt;&#x9;&lt;/span&gt;&lt;span style=&quot;white-space: pre;&quot;&gt;&#x9;&lt;/span&gt;&lt;span style=&quot;white-space: pre;&quot;&gt;&#x9;&lt;/span&gt;&lt;span style=&quot;white-space: pre;&quot;&gt;&#x9;&lt;/span&gt;&lt;span style=&quot;white-space: pre;&quot;&gt;&#x9;&lt;/span&gt;- จิ้นส้มหมก 15 บาท&lt;br&gt;&lt;span style=&quot;white-space: pre;&quot;&gt;&#x9;&lt;/span&gt;- ลาเต้ หวานเจี๊ยบ 35 บาท&lt;span style=&quot;white-space: pre;&quot;&gt;&#x9;&lt;/span&gt;&lt;br&gt;&lt;br&gt;&lt;u&gt;สิ่งที่ระบบควรจะทำได้&lt;/u&gt;&lt;br&gt;&lt;span style=&quot;white-space: pre;&quot;&gt;&#x9;&lt;/span&gt;- ลูกค้าเลือกสินค้า, ระบบจะต้องรวมยอดขาย และรวมรายการสินค้าทั้งหมดที่ลูกค้าเลือก&lt;br&gt;&lt;span style=&quot;white-space: pre;&quot;&gt;&#x9;&lt;/span&gt;- สรุปยอดว่าเหลือเงินในตู้อีกเท่าไหร่ เหลือเหรียญอะไรบ้าง? ธนบัตรอะไรบ้าง? อย่างละเท่าไหร่?&lt;br&gt;&lt;br&gt;&lt;br&gt;&lt;/font&gt;" style="text;html=1;align=left;verticalAlign=middle;resizable=0;points=[];autosize=1;strokeColor=none;fillColor=none;fontSize=14;" vertex="1" parent="Lmfxl-HpZoTMKIEGASB5-37">
          <mxGeometry x="25" y="30" width="580" height="240" as="geometry" />
        </mxCell>
      </root>
    </mxGraphModel>
  </diagram>
</mxfile>
